<svg viewBox="0 0 300 340" xmlns="http://www.w3.org/2000/svg" role="img" aria-label="LeagueLines mascot sprite">
<g transform="translate(6,6)" opacity="0.28" fill="#100D0A">
<rect x="88.0" y="252" width="46" height="34" rx="17"/>
<rect x="166.0" y="252" width="46" height="34" rx="17"/>
<rect x="45" y="150" width="34" height="60" rx="17"/>
<rect x="221" y="150" width="34" height="60" rx="17"/>
<rect x="65" y="40" width="170" height="230" rx="78"/>
</g>
<rect x="88.0" y="252" width="46" height="34" rx="17" fill="rgb(57,45,103)"/>
<rect x="166.0" y="252" width="46" height="34" rx="17" fill="rgb(57,45,103)"/>
<rect x="45" y="150" width="34" height="60" rx="17" fill="rgb(88,68,150)"/>
<rect x="221" y="150" width="34" height="60" rx="17" fill="rgb(88,68,150)"/>
<rect x="65" y="40" width="170" height="230" rx="78" fill="rgb(88,68,150)"/>
<polygon points="150.0,188.0 155.3,200.7 169.0,201.8 158.6,210.8 161.8,224.2 150.0,217.0 138.2,224.2 141.4,210.8 131.0,201.8 144.7,200.7" fill="rgb(247,242,231)"/>
<path d="M 67 98 Q 150.0 118 233 98 L 233 110 Q 150.0 130 67 110 Z" fill="rgb(247,242,231)"/>
<circle cx="118.0" cy="132" r="9" fill="#2A2320"/>
<circle cx="182.0" cy="132" r="9" fill="#2A2320"/>
<ellipse cx="150.0" cy="166" rx="16" ry="13" fill="#2A2320"/>
<ellipse cx="94.0" cy="150" rx="12" ry="8" fill="rgb(57,45,103)" opacity="0.55"/>
<ellipse cx="206.0" cy="150" rx="12" ry="8" fill="rgb(57,45,103)" opacity="0.55"/>
</svg>